<svg id="Layer_1" data-name="Layer 1" xmlns="http://www.w3.org/2000/svg" viewBox="0 0 1054.56 324.45"><defs><style>.cls-1{fill:#000c3f;}.cls-2{fill:#00abc8;}</style></defs><path class="cls-1" d="M521.35,103.13q0,6.12-3.06,9.17t-10.56,3.61l-8.33.84q-17.5,1.66-26,12.22T465,154.53v63.62q0,6.66-3.89,10a14.85,14.85,0,0,1-10,3.33,15.36,15.36,0,0,1-10.14-3.33q-4-3.33-4-10V105.08q0-6.39,4-9.86a14.94,14.94,0,0,1,10.14-3.48,13.18,13.18,0,0,1,9.31,3.48q3.75,3.47,3.75,9.58v13.34a40.78,40.78,0,0,1,16.11-18.62A54.13,54.13,0,0,1,504.12,92l3.89-.28Q521.35,90.92,521.35,103.13Z" transform="translate(0 0)"/><path class="cls-1" d="M635.84,104.36Q649,118,649,145.76v72c0,4.27-1.21,7.55-3.61,9.87s-5.74,3.47-10,3.47q-6.12,0-9.72-3.61t-3.62-9.73V207.43a39.06,39.06,0,0,1-15.69,17.92q-10.42,6.26-24.31,6.25a54.16,54.16,0,0,1-24.31-5.41,43.93,43.93,0,0,1-17.36-14.87A37.18,37.18,0,0,1,534,189.93q-.28-15,7.5-23.47t25.28-12.23q17.51-3.75,48.62-3.75h6.39v-8.06q0-15.54-6.39-22.5T594.86,113a65.34,65.34,0,0,0-18.34,2.5,136.66,136.66,0,0,0-18.89,7.22q-7.5,4.17-10.56,4.17a8.57,8.57,0,0,1-6.8-3.06,11.41,11.41,0,0,1-2.64-7.78,12,12,0,0,1,2.36-7.36,24.85,24.85,0,0,1,7.64-6.25A94.82,94.82,0,0,1,570.41,94a106.21,106.21,0,0,1,25.28-3.2Q622.63,90.75,635.84,104.36Zm-23.76,96q9.72-10.42,9.73-26.81v-7.22h-5q-21.67,0-33.34,1.94t-16.67,6.53q-5,4.59-5,13.2A20.89,20.89,0,0,0,569,204.38q7.22,6.39,18.06,6.39Q602.35,210.77,612.08,200.35Z" transform="translate(0 0)"/><path class="cls-1" d="M753.43,219.83a21.15,21.15,0,0,1-7.09-6.39,13.88,13.88,0,0,1-2.08-7.5,11.48,11.48,0,0,1,2.5-7.51,7.9,7.9,0,0,1,6.39-3.05q3.61,0,11.39,4.44a116,116,0,0,0,16.25,7.23q7.92,2.77,19.87,2.77,13.33,0,20.83-4.72a14.91,14.91,0,0,0,7.5-13.33,13,13,0,0,0-2.91-8.89c-2-2.23-5.33-4.21-10.14-6a175.63,175.63,0,0,0-21.4-5.69q-24.45-5.28-35.14-14.31t-10.69-24.59a35.81,35.81,0,0,1,6.94-21.53,45.11,45.11,0,0,1,19.17-14.86,69.61,69.61,0,0,1,27.78-5.28,80.78,80.78,0,0,1,21.67,2.92A61.14,61.14,0,0,1,842.88,102q9.18,6.12,9.17,14.17a11,11,0,0,1-2.64,7.5,8,8,0,0,1-6.25,3.06,12.23,12.23,0,0,1-5-1.11,67,67,0,0,1-6.67-3.61,93.12,93.12,0,0,0-14-7q-6.53-2.5-16.25-2.5-11.67,0-18.75,5a15.8,15.8,0,0,0-7.08,13.61,13.68,13.68,0,0,0,6.52,12.09q6.52,4.31,24.59,8.19,18.62,3.9,29.17,8.89t15.14,12.37q4.59,7.37,4.59,18.75,0,18.06-15.14,29t-40.43,11Q771.48,231.49,753.43,219.83Z" transform="translate(0 0)"/><path class="cls-1" d="M995.58,198.45a11.89,11.89,0,0,1,2.5,7.78q0,8.07-10,13.62a88.44,88.44,0,0,1-21.25,8.61,86.52,86.52,0,0,1-22.09,3q-32.22,0-50.84-18.75T875.29,161.5q0-20.83,8.2-36.94a60.21,60.21,0,0,1,23.06-25q14.85-8.88,33.75-8.89,27.23,0,43.06,17.5t15.84,47.23q0,11.12-10,11.12H903.35q2.77,43.07,41.39,43.06a51.26,51.26,0,0,0,17.78-2.78,128.44,128.44,0,0,0,15.84-7.23c.56-.36,2.08-1.15,4.58-2.36a15.23,15.23,0,0,1,6.25-1.8A7.89,7.89,0,0,1,995.58,198.45ZM915,121.5q-9.74,10.27-11.67,28.89H975q-.84-18.88-9.59-29t-24.58-10.14Q924.74,111.22,915,121.5Z" transform="translate(0 0)"/><path class="cls-1" d="M1018,247.73a12.15,12.15,0,0,0-17.18.32C970.3,279.7,917,300.16,865,300.16c-85.41,0-154.9-55.6-154.9-123.94V81.4a12.16,12.16,0,0,0-12.14-12.15h-.32c-6.53.17-11.83,5.85-11.83,12.66v94.31c0,81.74,80.38,148.23,179.19,148.23,58.29,0,118.47-23.37,153.33-59.55a12.16,12.16,0,0,0-.32-17.17Z" transform="translate(0 0)"/><path class="cls-2" d="M120.29,198.45a11.87,11.87,0,0,1,2.5,7.78q0,8.06-10,13.61a87.64,87.64,0,0,1-21.25,8.61,86.11,86.11,0,0,1-22.09,3.06q-32.22,0-50.84-18.76T0,161.5q0-20.83,8.2-36.95a60.21,60.21,0,0,1,23.06-25Q46.11,90.66,65,90.65q27.22,0,43.06,17.51t15.84,47.23q0,11.12-10,11.11H28.06q2.78,43.07,41.39,43.06a51.26,51.26,0,0,0,17.78-2.78,129.79,129.79,0,0,0,15.84-7.22c.56-.37,2.08-1.16,4.58-2.36a15.11,15.11,0,0,1,6.25-1.81A7.87,7.87,0,0,1,120.29,198.45Zm-80.56-77Q30,131.78,28.06,150.38H99.74q-.84-18.88-9.59-29T65.56,111.21Q49.45,111.21,39.73,121.49Z" transform="translate(0 0)"/><path class="cls-2" d="M263.4,212.78a11.41,11.41,0,0,1,0,15.83q-3.21,2.92-9.31,2.92h-95q-6.12,0-9.73-3.47a11.62,11.62,0,0,1-3.61-8.75q0-5.28,4.17-10.28l77.23-91.4H157.41c-3.89,0-6.9-1-9-2.92a11.43,11.43,0,0,1,0-15.84q3.19-2.91,9-2.91h92.24a13.24,13.24,0,0,1,9.58,3.61,11.55,11.55,0,0,1,3.75,8.61q0,5.28-4.17,10.28l-77.23,91.4h72.51Q260.2,209.86,263.4,212.78Z" transform="translate(0 0)"/><path class="cls-2" d="M397.41,96.62a12.83,12.83,0,0,1,6.81-2,13.57,13.57,0,0,1,9.3,3.61,11.22,11.22,0,0,1,4,8.61,12.82,12.82,0,0,1-1.11,5.28L339.21,276.08a13.09,13.09,0,0,1-4.87,6,12.23,12.23,0,0,1-6.8,2.08,13.79,13.79,0,0,1-9-3.33,10.39,10.39,0,0,1-4-8.34,15,15,0,0,1,1.39-5.55L335,226.08,281.42,112.17a11.33,11.33,0,0,1,3.33-13.89,15.5,15.5,0,0,1,10-3.61q8.33,0,11.94,7.78L349.76,198l42.79-95.29A12.07,12.07,0,0,1,397.41,96.62Z" transform="translate(0 0)"/><circle class="cls-2" cx="1042.56" cy="219.53" r="12"/><path class="cls-2" d="M756.92,49.28,714.51,6.87a23.47,23.47,0,0,0-33.18,0L638.84,49.36a12.12,12.12,0,0,0-1.29,15.93,11.91,11.91,0,0,0,17.85,1.16L688,33.82a14,14,0,0,1,19.78,0l32.62,32.63a11.91,11.91,0,0,0,16.62.2,11.48,11.48,0,0,0,3.53-8.3A12.68,12.68,0,0,0,756.92,49.28Z" transform="translate(0 0)"/></svg>